<?xml version="1.0" standalone="no"?>
<!DOCTYPE svg PUBLIC "-//W3C//DTD SVG 20010904//EN"
 "http://www.w3.org/TR/2001/REC-SVG-20010904/DTD/svg10.dtd">
<svg version="1.0" xmlns="http://www.w3.org/2000/svg"
 width="90.000000pt" height="90.000000pt" viewBox="0 0 90.000000 90.000000"
 preserveAspectRatio="xMidYMid meet">
<metadata>
Created by potrace 1.11, written by Peter Selinger 2001-2013
</metadata>
<g transform="translate(0.000000,90.000000) scale(0.100000,-0.100000)"
fill="#000000" stroke="none">
<path d="M251 635 c-11 -26 -21 -50 -21 -53 0 -2 -18 -55 -40 -116 -25 -68
-50 -119 -65 -133 -14 -12 -25 -25 -25 -28 0 -3 25 -5 55 -5 30 0 55 5 55 10
0 6 -6 10 -14 10 -22 0 -28 16 -20 55 l6 35 58 0 c56 0 58 -1 69 -31 16 -46
14 -59 -9 -59 -11 0 -20 -4 -20 -10 0 -10 142 -15 152 -5 3 3 -8 20 -23 36
-16 17 -29 36 -29 42 0 11 -14 51 -80 226 l-28 74 -21 -48z m17 -145 l21 -60
-46 0 c-42 0 -45 2 -40 23 11 44 32 97 39 97 3 0 15 -27 26 -60z"/>
<path d="M460 661 c0 -5 9 -11 20 -14 19 -5 20 -14 20 -162 0 -148 -1 -157
-20 -162 -48 -13 -12 -23 80 -23 60 0 100 4 100 10 0 6 8 10 18 10 78 2 86
132 10 165 -18 8 -25 14 -16 15 28 0 58 41 58 77 0 31 -8 43 -54 81 -18 14
-216 17 -216 3z m172 -33 c21 -18 29 -55 17 -86 -12 -31 -26 -42 -55 -42 -20
0 -21 5 -19 63 1 34 3 65 4 70 2 11 36 8 53 -5z m5 -156 c14 -9 28 -60 24 -87
-6 -44 -71 -77 -83 -42 -4 10 -3 126 1 135 3 5 47 1 58 -6z"/>
</g>
</svg>
